<svg xmlns="http://www.w3.org/2000/svg" xmlns:xlink="http://www.w3.org/1999/xlink" viewBox="0 0 1894 438"><defs><style>.cls-1{fill:url(#linear-gradient);}.cls-2{fill:url(#linear-gradient-2);}.cls-3{fill:url(#linear-gradient-3);}.cls-4{fill:url(#linear-gradient-4);}.cls-5{isolation:isolate;}.cls-6{clip-path:url(#clip-path);}.cls-7{opacity:0.7;}.cls-10,.cls-8{fill:#1b1b1b;}.cls-10,.cls-11,.cls-8,.cls-9{mix-blend-mode:color-dodge;}.cls-9{fill:#0c0c0c;}.cls-10,.cls-22{opacity:0.3;}.cls-11{fill:#4a4a4a;}.cls-12,.cls-13,.cls-14,.cls-15,.cls-16,.cls-17,.cls-18,.cls-19,.cls-20,.cls-21,.cls-22,.cls-23,.cls-24,.cls-25{fill:#303030;mix-blend-mode:overlay;}.cls-12{opacity:0.58;}.cls-13{opacity:0.88;}.cls-14{opacity:0.25;}.cls-15{opacity:0.96;}.cls-16{opacity:0.21;}.cls-17{opacity:0.5;}.cls-18{opacity:0.39;}.cls-19{opacity:0.59;}.cls-20{opacity:0.87;}.cls-21{opacity:0.32;}.cls-23{opacity:0.66;}.cls-24{opacity:0.28;}.cls-25{opacity:0.89;}.cls-26{clip-path:url(#clip-path-3);}</style><linearGradient id="linear-gradient" x1="1050.9" y1="219.29" x2="2242.8" y2="147.91" gradientUnits="userSpaceOnUse"><stop offset="0" stop-color="#fcfcfc"/><stop offset="0.16" stop-color="#f9fbfc"/><stop offset="0.28" stop-color="#f0f7fd"/><stop offset="0.38" stop-color="#e0f1fe"/><stop offset="0.47" stop-color="#c9e8ff"/><stop offset="0.49" stop-color="#c4e6ff"/><stop offset="0.52" stop-color="#bee3ff"/><stop offset="0.56" stop-color="#acdcff"/><stop offset="0.6" stop-color="#8fcfff"/><stop offset="0.65" stop-color="#67beff"/><stop offset="0.7" stop-color="#33a7ff"/><stop offset="0.72" stop-color="#1b9dff"/></linearGradient><linearGradient id="linear-gradient-2" x1="1050.9" y1="219.29" x2="2242.8" y2="147.91" gradientUnits="userSpaceOnUse"><stop offset="0" stop-color="#fcfcfc"/><stop offset="0.16" stop-color="#f9fbfc"/><stop offset="0.28" stop-color="#f0f7fd"/><stop offset="0.38" stop-color="#e0f1fe"/><stop offset="0.47" stop-color="#c9e8ff"/><stop offset="0.49" stop-color="#c4e6ff"/><stop offset="0.52" stop-color="#bee4fe"/><stop offset="0.55" stop-color="#acddfb"/><stop offset="0.59" stop-color="#8fd2f6"/><stop offset="0.63" stop-color="#66c3ef"/><stop offset="0.68" stop-color="#33afe7"/><stop offset="0.72" stop-color="#009cde"/></linearGradient><linearGradient id="linear-gradient-3" x1="1405.87" y1="219.2" x2="2595.26" y2="147.97" gradientTransform="matrix(1, 0, 0, -1, -1306.18, 394.2)" xlink:href="#linear-gradient"/><linearGradient id="linear-gradient-4" x1="1405.87" y1="219.2" x2="2595.26" y2="147.97" gradientTransform="matrix(1, 0, 0, -1, -1306.18, 394.2)" xlink:href="#linear-gradient-2"/><clipPath id="clip-path"><rect class="cls-1" x="946.26" y="-182.58" width="948.95" height="759.45"/></clipPath><clipPath id="clip-path-3"><rect class="cls-3" x="-1.21" y="-183.8" width="949.18" height="761.8" transform="translate(946.76 394.2) rotate(180)"/></clipPath></defs><title>bread</title><g class="cls-5"><g id="Layer_1" data-name="Layer 1"><rect class="cls-1" x="946.26" y="-182.58" width="948.95" height="759.45"/><g class="cls-6"><g class="cls-7"><polygon class="cls-8" points="1699.24 91.62 1678.42 127.67 1699.24 163.74 1740.87 163.74 1761.68 127.67 1740.87 91.62 1699.24 91.62"/><path class="cls-8" d="M1810.2-18.74l-38.29,66.33h-76.58L1657-18.74l38.29-66.33h76.58l38.29,66.33m9.3,0-42.94-74.38h-85.88l-42.94,74.38,42.94,74.39h85.88l42.94-74.39Z"/><polygon class="cls-9" points="1463.31 -1.74 1449.94 21.41 1463.31 44.57 1490.04 44.57 1503.41 21.41 1490.04 -1.74 1463.31 -1.74"/><path class="cls-8" d="M1739.9,395.73l-4.13,7.17h-8.25l-4.13-7.17,4.13-7.14h8.25l4.13,7.14m1,0-4.63-8H1727l-4.63,8,4.63,8h9.26l4.63-8Z"/><polygon class="cls-10" points="1494.3 59.94 1418.04 192.02 1494.3 324.1 1646.8 324.1 1723.05 192.02 1646.8 59.94 1494.3 59.94"/><path class="cls-11" d="M1757.2,510l-45.06,78h-90.09l-45-78,45-78h90.09l45.06,78m2.5,0-46.31-80.2H1620.8L1574.5,510l46.3,80.19h92.59L1759.7,510Z"/><path class="cls-8" d="M1762.14-12.32l-76.78,133H1531.82L1455-12.32l76.81-133h153.54l76.78,133m4.27,0L1687.5-149H1529.68L1450.74-12.32l78.94,136.7H1687.5l78.91-136.7Z"/><path class="cls-8" d="M1469.37,238.47l-7.62,13.19h-15.23l-7.62-13.19,7.62-13.19h15.23l7.62,13.19m.42,0L1462,224.92h-15.65l-7.83,13.55,7.83,13.56H1462l7.83-13.56Z"/><path class="cls-8" d="M1750.37,267.79,1722.56,316H1667l-27.81-48.17L1667,219.65h55.6l27.81,48.14m1.55,0-28.58-49.48h-57.16l-28.57,49.48,28.57,49.51h57.16l28.58-49.51Z"/><path class="cls-9" d="M1803.85,52.19l16.81-29.11h33.6l16.81,29.11-16.81,29.1h-33.6l-16.81-29.1m-4.08,0,18.85,32.64h37.68l18.85-32.64L1856.3,19.56h-37.68l-18.85,32.63Z"/><path class="cls-8" d="M1517.28,334.31l69.91-121.1H1727l69.91,121.1L1727,455.43H1587.19l-69.91-121.12m-17,0,78.4,135.82h156.81l78.4-135.82-78.4-135.8H1578.7l-78.4,135.8Z"/><path class="cls-11" d="M1686.37,283.52l15.07-26.09h30.14l15.07,26.09-15.07,26.11h-30.14l-15.07-26.11m-.84,0L1701,310.37h31l15.48-26.85L1732,256.71h-31l-15.49,26.81Z"/><path class="cls-8" d="M1362.17,264.14l10.52-18.2h21l10.52,18.2-10.52,18.2h-21l-10.52-18.2m-.58,0,10.81,18.73H1394l10.81-18.73L1394,245.42H1372.4l-10.81,18.72Z"/><path class="cls-9" d="M1254.07-18.69l95.12-164.78h190.26l95.12,164.78-95.12,164.78H1349.19L1254.07-18.69m-5.29,0,97.77,169.36H1542.1l97.77-169.36L1542.1-188H1346.55L1248.78-18.69Z"/><path class="cls-8" d="M1249.7,559.81l82.58-143h165.16l82.61,143-82.61,143H1332.28l-82.58-143m-4.6,0,84.88,147h169.76l84.9-147-84.9-147H1330l-84.88,147Z"/></g><polygon class="cls-12" points="1667.51 127.22 1667.51 148.42 1646.31 148.42 1646.31 169.51 1667.51 169.51 1667.51 190.72 1688.6 190.72 1688.6 169.51 1709.8 169.51 1709.8 148.42 1688.6 148.42 1688.6 127.22 1667.51 127.22"/><polygon class="cls-13" points="1513.07 337.71 1513.07 399.55 1451.23 399.55 1451.23 461.07 1513.07 461.07 1513.07 522.91 1574.59 522.91 1574.59 461.07 1636.43 461.07 1636.43 399.55 1574.59 399.55 1574.59 337.71 1513.07 337.71"/><polygon class="cls-14" points="1416.88 -55.27 1416.88 -9.61 1371.22 -9.61 1371.22 35.81 1416.88 35.81 1416.88 81.47 1462.31 81.47 1462.31 35.81 1507.97 35.81 1507.97 -9.61 1462.31 -9.61 1462.31 -55.27 1416.88 -55.27"/><polygon class="cls-15" points="1235.08 -40.48 1235.08 -25.02 1219.61 -25.02 1219.61 -9.63 1235.08 -9.63 1235.08 5.84 1250.47 5.84 1250.47 -9.63 1265.93 -9.63 1265.93 -25.02 1250.47 -25.02 1250.47 -40.48 1235.08 -40.48"/><polygon class="cls-16" points="1590.67 258.94 1590.67 292.78 1556.82 292.78 1556.82 326.45 1590.67 326.45 1590.67 360.3 1624.34 360.3 1624.34 326.45 1658.19 326.45 1658.19 292.78 1624.34 292.78 1624.34 258.94 1590.67 258.94"/><polygon class="cls-17" points="1764.58 31.14 1764.58 107.33 1688.38 107.33 1688.38 183.14 1764.58 183.14 1764.58 259.33 1840.38 259.33 1840.38 183.14 1916.58 183.14 1916.58 107.33 1840.38 107.33 1840.38 31.14 1764.58 31.14"/><polygon class="cls-18" points="1555.87 370.66 1555.87 468.74 1457.79 468.74 1457.79 566.31 1555.87 566.31 1555.87 664.39 1653.45 664.39 1653.45 566.31 1751.53 566.31 1751.53 468.74 1653.45 468.74 1653.45 370.66 1555.87 370.66"/><polygon class="cls-19" points="1560.76 -71.88 1560.76 -29.78 1518.66 -29.78 1518.66 12.11 1560.76 12.11 1560.76 54.21 1602.64 54.21 1602.64 12.11 1644.75 12.11 1644.75 -29.78 1602.64 -29.78 1602.64 -71.88 1560.76 -71.88"/><polygon class="cls-20" points="1372.98 315.98 1372.98 328.52 1360.43 328.52 1360.43 341 1372.98 341 1372.98 353.55 1385.46 353.55 1385.46 341 1398 341 1398 328.52 1385.46 328.52 1385.46 315.98 1372.98 315.98"/><polygon class="cls-21" points="1794.92 233.26 1794.92 290.79 1737.39 290.79 1737.39 348.02 1794.92 348.02 1794.92 405.55 1852.15 405.55 1852.15 348.02 1909.68 348.02 1909.68 290.79 1852.15 290.79 1852.15 233.26 1794.92 233.26"/><polygon class="cls-22" points="1747.62 343.26 1747.62 425.21 1665.66 425.21 1665.66 506.74 1747.62 506.74 1747.62 588.7 1829.15 588.7 1829.15 506.74 1911.1 506.74 1911.1 425.21 1829.15 425.21 1829.15 343.26 1747.62 343.26"/><polygon class="cls-23" points="1303.7 59.08 1303.7 118.14 1244.64 118.14 1244.64 176.89 1303.7 176.89 1303.7 235.95 1362.45 235.95 1362.45 176.89 1421.51 176.89 1421.51 118.14 1362.45 118.14 1362.45 59.08 1303.7 59.08"/><polygon class="cls-24" points="1695.24 -87.67 1695.24 -56.97 1664.53 -56.97 1664.53 -26.42 1695.24 -26.42 1695.24 4.28 1725.78 4.28 1725.78 -26.42 1756.48 -26.42 1756.48 -56.97 1725.78 -56.97 1725.78 -87.67 1695.24 -87.67"/><polygon class="cls-25" points="1463.12 40.94 1463.12 133.97 1370.1 133.97 1370.1 226.51 1463.12 226.51 1463.12 319.53 1555.66 319.53 1555.66 226.51 1648.69 226.51 1648.69 133.97 1555.66 133.97 1555.66 40.94 1463.12 40.94"/></g><rect class="cls-2" x="946.26" y="-182.58" width="948.95" height="759.45"/><g class="cls-6"><g class="cls-7"><polygon class="cls-8" points="1699.24 91.62 1678.42 127.67 1699.24 163.74 1740.87 163.74 1761.68 127.67 1740.87 91.62 1699.24 91.62"/><path class="cls-8" d="M1810.2-18.74l-38.29,66.33h-76.58L1657-18.74l38.29-66.33h76.58l38.29,66.33m9.3,0-42.94-74.38h-85.88l-42.94,74.38,42.94,74.39h85.88l42.94-74.39Z"/><polygon class="cls-9" points="1463.31 -1.74 1449.94 21.41 1463.31 44.57 1490.04 44.57 1503.41 21.41 1490.04 -1.74 1463.31 -1.74"/><path class="cls-8" d="M1739.9,395.73l-4.13,7.17h-8.25l-4.13-7.17,4.13-7.14h8.25l4.13,7.14m1,0-4.63-8H1727l-4.63,8,4.63,8h9.26l4.63-8Z"/><polygon class="cls-10" points="1494.3 59.94 1418.04 192.02 1494.3 324.1 1646.8 324.1 1723.05 192.02 1646.8 59.94 1494.3 59.94"/><path class="cls-11" d="M1757.2,510l-45.06,78h-90.09l-45-78,45-78h90.09l45.06,78m2.5,0-46.31-80.2H1620.8L1574.5,510l46.3,80.19h92.59L1759.7,510Z"/><path class="cls-8" d="M1762.14-12.32l-76.78,133H1531.82L1455-12.32l76.81-133h153.54l76.78,133m4.27,0L1687.5-149H1529.68L1450.74-12.32l78.94,136.7H1687.5l78.91-136.7Z"/><path class="cls-8" d="M1469.37,238.47l-7.62,13.19h-15.23l-7.62-13.19,7.62-13.19h15.23l7.62,13.19m.42,0L1462,224.92h-15.65l-7.83,13.55,7.83,13.56H1462l7.83-13.56Z"/><path class="cls-8" d="M1750.37,267.79,1722.56,316H1667l-27.81-48.17L1667,219.65h55.6l27.81,48.14m1.55,0-28.58-49.48h-57.16l-28.57,49.48,28.57,49.51h57.16l28.58-49.51Z"/><path class="cls-9" d="M1803.85,52.19l16.81-29.11h33.6l16.81,29.11-16.81,29.1h-33.6l-16.81-29.1m-4.08,0,18.85,32.64h37.68l18.85-32.64L1856.3,19.56h-37.68l-18.85,32.63Z"/><path class="cls-8" d="M1517.28,334.31l69.91-121.1H1727l69.91,121.1L1727,455.43H1587.19l-69.91-121.12m-17,0,78.4,135.82h156.81l78.4-135.82-78.4-135.8H1578.7l-78.4,135.8Z"/><path class="cls-11" d="M1686.37,283.52l15.07-26.09h30.14l15.07,26.09-15.07,26.11h-30.14l-15.07-26.11m-.84,0L1701,310.37h31l15.48-26.85L1732,256.71h-31l-15.49,26.81Z"/><path class="cls-8" d="M1362.17,264.14l10.52-18.2h21l10.52,18.2-10.52,18.2h-21l-10.52-18.2m-.58,0,10.81,18.73H1394l10.81-18.73L1394,245.42H1372.4l-10.81,18.72Z"/><path class="cls-9" d="M1254.07-18.69l95.12-164.78h190.26l95.12,164.78-95.12,164.78H1349.19L1254.07-18.69m-5.29,0,97.77,169.36H1542.1l97.77-169.36L1542.1-188H1346.55L1248.78-18.69Z"/><path class="cls-8" d="M1249.7,559.81l82.58-143h165.16l82.61,143-82.61,143H1332.28l-82.58-143m-4.6,0,84.88,147h169.76l84.9-147-84.9-147H1330l-84.88,147Z"/></g><polygon class="cls-12" points="1667.51 127.22 1667.51 148.42 1646.31 148.42 1646.31 169.51 1667.51 169.51 1667.51 190.72 1688.6 190.72 1688.6 169.51 1709.8 169.51 1709.8 148.42 1688.6 148.42 1688.6 127.22 1667.51 127.22"/><polygon class="cls-13" points="1513.07 337.71 1513.07 399.55 1451.23 399.55 1451.23 461.07 1513.07 461.07 1513.07 522.91 1574.59 522.91 1574.59 461.07 1636.43 461.07 1636.43 399.55 1574.59 399.55 1574.59 337.71 1513.07 337.71"/><polygon class="cls-14" points="1416.88 -55.27 1416.88 -9.61 1371.22 -9.61 1371.22 35.81 1416.88 35.81 1416.88 81.47 1462.31 81.47 1462.31 35.81 1507.97 35.81 1507.97 -9.61 1462.31 -9.61 1462.31 -55.27 1416.88 -55.27"/><polygon class="cls-15" points="1235.08 -40.48 1235.08 -25.02 1219.61 -25.02 1219.61 -9.63 1235.08 -9.63 1235.08 5.84 1250.47 5.84 1250.47 -9.63 1265.93 -9.63 1265.93 -25.02 1250.47 -25.02 1250.47 -40.48 1235.08 -40.48"/><polygon class="cls-16" points="1590.67 258.94 1590.67 292.78 1556.82 292.78 1556.82 326.45 1590.67 326.45 1590.67 360.3 1624.34 360.3 1624.34 326.45 1658.19 326.45 1658.19 292.78 1624.34 292.78 1624.34 258.94 1590.67 258.94"/><polygon class="cls-17" points="1764.58 31.14 1764.58 107.33 1688.38 107.33 1688.38 183.14 1764.58 183.14 1764.58 259.33 1840.38 259.33 1840.38 183.14 1916.58 183.14 1916.58 107.33 1840.38 107.33 1840.38 31.14 1764.58 31.14"/><polygon class="cls-18" points="1555.87 370.66 1555.87 468.74 1457.79 468.74 1457.79 566.31 1555.87 566.31 1555.87 664.39 1653.45 664.39 1653.45 566.31 1751.53 566.31 1751.53 468.74 1653.45 468.74 1653.45 370.66 1555.87 370.66"/><polygon class="cls-19" points="1560.76 -71.88 1560.76 -29.78 1518.66 -29.78 1518.66 12.11 1560.76 12.11 1560.76 54.21 1602.64 54.21 1602.64 12.11 1644.75 12.11 1644.75 -29.78 1602.64 -29.78 1602.64 -71.88 1560.76 -71.88"/><polygon class="cls-20" points="1372.98 315.98 1372.98 328.52 1360.43 328.52 1360.43 341 1372.98 341 1372.98 353.55 1385.46 353.55 1385.46 341 1398 341 1398 328.52 1385.46 328.52 1385.46 315.98 1372.98 315.98"/><polygon class="cls-21" points="1794.92 233.26 1794.92 290.79 1737.39 290.79 1737.39 348.02 1794.92 348.02 1794.92 405.55 1852.15 405.55 1852.15 348.02 1909.68 348.02 1909.68 290.79 1852.15 290.79 1852.15 233.26 1794.92 233.26"/><polygon class="cls-22" points="1747.62 343.26 1747.62 425.21 1665.66 425.21 1665.66 506.74 1747.62 506.74 1747.62 588.7 1829.15 588.7 1829.15 506.74 1911.1 506.74 1911.1 425.21 1829.15 425.21 1829.15 343.26 1747.62 343.26"/><polygon class="cls-23" points="1303.7 59.08 1303.7 118.14 1244.64 118.14 1244.64 176.89 1303.7 176.89 1303.7 235.95 1362.45 235.95 1362.45 176.89 1421.51 176.89 1421.51 118.14 1362.45 118.14 1362.45 59.08 1303.7 59.08"/><polygon class="cls-24" points="1695.24 -87.67 1695.24 -56.97 1664.53 -56.97 1664.53 -26.42 1695.24 -26.42 1695.24 4.28 1725.78 4.28 1725.78 -26.42 1756.48 -26.42 1756.48 -56.97 1725.78 -56.97 1725.78 -87.67 1695.24 -87.67"/><polygon class="cls-25" points="1463.12 40.94 1463.12 133.97 1370.1 133.97 1370.1 226.51 1463.12 226.51 1463.12 319.53 1555.66 319.53 1555.66 226.51 1648.69 226.51 1648.69 133.97 1555.66 133.97 1555.66 40.94 1463.12 40.94"/></g><rect class="cls-3" x="-1.21" y="-183.8" width="949.18" height="761.8" transform="translate(946.76 394.2) rotate(180)"/><g class="cls-26"><g class="cls-7"><polygon class="cls-8" points="195.88 91.25 216.81 127.41 195.88 163.59 154.01 163.59 133.08 127.41 154.01 91.25 195.88 91.25"/><path class="cls-8" d="M84.28-19.45l38.51,66.54h77l38.51-66.54L199.81-86h-77L84.28-19.45m-9.35,0,43.19-74.62h86.37l43.18,74.62L204.49,55.17H118.12L74.93-19.45Z"/><polygon class="cls-9" points="433.16 -2.4 446.6 20.82 433.16 44.06 406.27 44.06 392.83 20.82 406.27 -2.4 433.16 -2.4"/><path class="cls-8" d="M155,396.3l4.16,7.19h8.3l4.15-7.19-4.15-7.16h-8.3L155,396.3m-1,0,4.66-8h9.31l4.66,8-4.66,8.06h-9.31L154,396.3Z"/><polygon class="cls-10" points="402 59.47 478.68 191.96 402 324.45 248.62 324.45 171.93 191.96 248.62 59.47 402 59.47"/><path class="cls-11" d="M137.59,510.89l45.32,78.26h90.6l45.3-78.26-45.3-78.28h-90.6l-45.32,78.28m-2.52,0,46.58-80.45h93.12l46.56,80.45-46.56,80.43H181.65l-46.58-80.43Z"/><path class="cls-8" d="M132.62-13,209.84,120.4H364.26L441.51-13,364.26-146.38H209.84L132.62-13m-4.3,0,79.37-137.07H366.41L445.8-13,366.41,124.11H207.69L128.32-13Z"/><path class="cls-8" d="M427.07,238.55l7.66,13.24H450l7.67-13.24L450,225.32H434.73l-7.66,13.23m-.43,0L434.51,225h15.75l7.87,13.59-7.87,13.6H434.51l-7.87-13.6Z"/><path class="cls-8" d="M144.46,268l28,48.31h55.93l28-48.31-28-48.29H172.42l-28,48.29m-1.56,0,28.74-49.64h57.49L257.86,268l-28.73,49.66H171.64L142.9,268Z"/><path class="cls-9" d="M90.67,51.69,73.76,22.5H40L23.07,51.69,40,80.89H73.76l16.91-29.2m4.1,0-19,32.75H37.92L19,51.69,37.92,19h37.9l19,32.72Z"/><path class="cls-8" d="M378.88,334.69,308.57,213.22H167.94L97.63,334.69l70.31,121.49H308.57l70.31-121.49m17.08,0L317.11,470.93H159.41L80.56,334.69l78.85-136.22h157.7L396,334.69Z"/><path class="cls-11" d="M208.83,283.74l-15.16-26.17H163.36L148.2,283.74l15.16,26.19h30.31l15.16-26.19m.84,0-15.58,26.93H162.94l-15.58-26.93,15.58-26.89h31.15l15.58,26.89Z"/><path class="cls-8" d="M534.87,264.31l-10.58-18.26H503.15l-10.58,18.26,10.58,18.26h21.14l10.58-18.26m.59,0-10.87,18.78H502.85L492,264.31l10.87-18.79h21.74l10.87,18.79Z"/><path class="cls-9" d="M643.59-19.4,547.93-184.69H356.58L260.92-19.4l95.66,165.29H547.93L643.59-19.4m5.33,0L550.59,150.48H353.92L255.59-19.4l98.33-169.89H550.59L648.92-19.4Z"/><path class="cls-8" d="M648,560.89l-83-143.5H398.83l-83.08,143.5,83.08,143.46H564.94l83-143.46m4.62,0L567.25,708.34H396.52L311.13,560.89l85.39-147.48H567.25l85.36,147.48Z"/></g><polygon class="cls-12" points="227.79 126.96 227.79 148.23 249.12 148.23 249.12 169.39 227.79 169.39 227.79 190.65 206.58 190.65 206.58 169.39 185.26 169.39 185.26 148.23 206.58 148.23 206.58 126.96 227.79 126.96"/><polygon class="cls-13" points="383.11 338.11 383.11 400.14 445.3 400.14 445.3 461.85 383.11 461.85 383.11 523.88 321.24 523.88 321.24 461.85 259.05 461.85 259.05 400.14 321.24 400.14 321.24 338.11 383.11 338.11"/><polygon class="cls-14" points="479.85 -56.1 479.85 -10.3 525.77 -10.3 525.77 35.27 479.85 35.27 479.85 81.07 434.17 81.07 434.17 35.27 388.24 35.27 388.24 -10.3 434.17 -10.3 434.17 -56.1 479.85 -56.1"/><polygon class="cls-15" points="662.69 -41.26 662.69 -25.75 678.25 -25.75 678.25 -10.31 662.69 -10.31 662.69 5.2 647.22 5.2 647.22 -10.31 631.66 -10.31 631.66 -25.75 647.22 -25.75 647.22 -41.26 662.69 -41.26"/><polygon class="cls-16" points="305.07 259.09 305.07 293.04 339.11 293.04 339.11 326.81 305.07 326.81 305.07 360.76 271.21 360.76 271.21 326.81 237.17 326.81 237.17 293.04 271.21 293.04 271.21 259.09 305.07 259.09"/><polygon class="cls-17" points="130.17 30.58 130.17 107.01 206.8 107.01 206.8 183.05 130.17 183.05 130.17 259.48 53.93 259.48 53.93 183.05 -22.7 183.05 -22.7 107.01 53.93 107.01 53.93 30.58 130.17 30.58"/><polygon class="cls-18" points="340.07 371.15 340.07 469.54 438.71 469.54 438.71 567.41 340.07 567.41 340.07 665.8 241.94 665.8 241.94 567.41 143.29 567.41 143.29 469.54 241.94 469.54 241.94 371.15 340.07 371.15"/><polygon class="cls-19" points="335.15 -72.76 335.15 -30.52 377.49 -30.52 377.49 11.49 335.15 11.49 335.15 53.72 293.03 53.72 293.03 11.49 250.68 11.49 250.68 -30.52 293.03 -30.52 293.03 -72.76 335.15 -72.76"/><polygon class="cls-20" points="524.01 316.31 524.01 328.89 536.62 328.89 536.62 341.4 524.01 341.4 524.01 353.99 511.46 353.99 511.46 341.4 498.84 341.4 498.84 328.89 511.46 328.89 511.46 316.31 524.01 316.31"/><polygon class="cls-21" points="99.65 233.33 99.65 291.04 157.51 291.04 157.51 348.44 99.65 348.44 99.65 406.15 42.09 406.15 42.09 348.44 -15.77 348.44 -15.77 291.04 42.09 291.04 42.09 233.33 99.65 233.33"/><polygon class="cls-22" points="147.23 343.67 147.23 425.88 229.65 425.88 229.65 507.66 147.23 507.66 147.23 589.87 65.23 589.87 65.23 507.66 -17.19 507.66 -17.19 425.88 65.23 425.88 65.23 343.67 147.23 343.67"/><polygon class="cls-23" points="593.68 58.61 593.68 117.85 653.08 117.85 653.08 176.78 593.68 176.78 593.68 236.03 534.6 236.03 534.6 176.78 475.2 176.78 475.2 117.85 534.6 117.85 534.6 58.61 593.68 58.61"/><polygon class="cls-24" points="199.91 -88.6 199.91 -57.8 230.78 -57.8 230.78 -27.16 199.91 -27.16 199.91 3.64 169.19 3.64 169.19 -27.16 138.31 -27.16 138.31 -57.8 169.19 -57.8 169.19 -88.6 199.91 -88.6"/><polygon class="cls-25" points="433.35 40.42 433.35 133.73 526.9 133.73 526.9 226.56 433.35 226.56 433.35 319.87 340.28 319.87 340.28 226.56 246.72 226.56 246.72 133.73 340.28 133.73 340.28 40.42 433.35 40.42"/></g><rect class="cls-4" x="-1.21" y="-183.8" width="949.18" height="761.8" transform="translate(946.76 394.2) rotate(180)"/><g class="cls-26"><g class="cls-7"><polygon class="cls-8" points="195.88 91.25 216.81 127.41 195.88 163.59 154.01 163.59 133.08 127.41 154.01 91.25 195.88 91.25"/><path class="cls-8" d="M84.28-19.45l38.51,66.54h77l38.51-66.54L199.81-86h-77L84.28-19.45m-9.35,0,43.19-74.62h86.37l43.18,74.62L204.49,55.17H118.12L74.93-19.45Z"/><polygon class="cls-9" points="433.16 -2.4 446.6 20.82 433.16 44.06 406.27 44.06 392.83 20.82 406.27 -2.4 433.16 -2.4"/><path class="cls-8" d="M155,396.3l4.16,7.19h8.3l4.15-7.19-4.15-7.16h-8.3L155,396.3m-1,0,4.66-8h9.31l4.66,8-4.66,8.06h-9.31L154,396.3Z"/><polygon class="cls-10" points="402 59.47 478.68 191.96 402 324.45 248.62 324.45 171.93 191.96 248.62 59.47 402 59.47"/><path class="cls-11" d="M137.59,510.89l45.32,78.26h90.6l45.3-78.26-45.3-78.28h-90.6l-45.32,78.28m-2.52,0,46.58-80.45h93.12l46.56,80.45-46.56,80.43H181.65l-46.58-80.43Z"/><path class="cls-8" d="M132.62-13,209.84,120.4H364.26L441.51-13,364.26-146.38H209.84L132.62-13m-4.3,0,79.37-137.07H366.41L445.8-13,366.41,124.11H207.69L128.32-13Z"/><path class="cls-8" d="M427.07,238.55l7.66,13.24H450l7.67-13.24L450,225.32H434.73l-7.66,13.23m-.43,0L434.51,225h15.75l7.87,13.59-7.87,13.6H434.51l-7.87-13.6Z"/><path class="cls-8" d="M144.46,268l28,48.31h55.93l28-48.31-28-48.29H172.42l-28,48.29m-1.56,0,28.74-49.64h57.49L257.86,268l-28.73,49.66H171.64L142.9,268Z"/><path class="cls-9" d="M90.67,51.69,73.76,22.5H40L23.07,51.69,40,80.89H73.76l16.91-29.2m4.1,0-19,32.75H37.92L19,51.69,37.92,19h37.9l19,32.72Z"/><path class="cls-8" d="M378.88,334.69,308.57,213.22H167.94L97.63,334.69l70.31,121.49H308.57l70.31-121.49m17.08,0L317.11,470.93H159.41L80.56,334.69l78.85-136.22h157.7L396,334.69Z"/><path class="cls-11" d="M208.83,283.74l-15.16-26.17H163.36L148.2,283.74l15.16,26.19h30.31l15.16-26.19m.84,0-15.58,26.93H162.94l-15.58-26.93,15.58-26.89h31.15l15.58,26.89Z"/><path class="cls-8" d="M534.87,264.31l-10.58-18.26H503.15l-10.58,18.26,10.58,18.26h21.14l10.58-18.26m.59,0-10.87,18.78H502.85L492,264.31l10.87-18.79h21.74l10.87,18.79Z"/><path class="cls-9" d="M643.59-19.4,547.93-184.69H356.58L260.92-19.4l95.66,165.29H547.93L643.59-19.4m5.33,0L550.59,150.48H353.92L255.59-19.4l98.33-169.89H550.59L648.92-19.4Z"/><path class="cls-8" d="M648,560.89l-83-143.5H398.83l-83.08,143.5,83.08,143.46H564.94l83-143.46m4.62,0L567.25,708.34H396.52L311.13,560.89l85.39-147.48H567.25l85.36,147.48Z"/></g><polygon class="cls-12" points="227.79 126.96 227.79 148.23 249.12 148.23 249.12 169.39 227.79 169.39 227.79 190.65 206.58 190.65 206.58 169.39 185.26 169.39 185.26 148.23 206.58 148.23 206.58 126.96 227.79 126.96"/><polygon class="cls-13" points="383.11 338.11 383.11 400.14 445.3 400.14 445.3 461.85 383.11 461.85 383.11 523.88 321.24 523.88 321.24 461.85 259.05 461.85 259.05 400.14 321.24 400.14 321.24 338.11 383.11 338.11"/><polygon class="cls-14" points="479.85 -56.1 479.85 -10.3 525.77 -10.3 525.77 35.27 479.85 35.27 479.85 81.07 434.17 81.07 434.17 35.27 388.24 35.27 388.24 -10.3 434.17 -10.3 434.17 -56.1 479.85 -56.1"/><polygon class="cls-15" points="662.69 -41.26 662.69 -25.75 678.25 -25.75 678.25 -10.31 662.69 -10.31 662.69 5.2 647.22 5.2 647.22 -10.31 631.66 -10.31 631.66 -25.75 647.22 -25.75 647.22 -41.26 662.69 -41.26"/><polygon class="cls-16" points="305.07 259.09 305.07 293.04 339.11 293.04 339.11 326.81 305.07 326.81 305.07 360.76 271.21 360.76 271.21 326.81 237.17 326.81 237.17 293.04 271.21 293.04 271.21 259.09 305.07 259.09"/><polygon class="cls-17" points="130.17 30.58 130.17 107.01 206.8 107.01 206.8 183.05 130.17 183.05 130.17 259.48 53.93 259.48 53.93 183.05 -22.7 183.05 -22.7 107.01 53.93 107.01 53.93 30.58 130.17 30.58"/><polygon class="cls-18" points="340.07 371.15 340.07 469.54 438.71 469.54 438.71 567.41 340.07 567.41 340.07 665.8 241.94 665.8 241.94 567.41 143.29 567.41 143.29 469.54 241.94 469.54 241.94 371.15 340.07 371.15"/><polygon class="cls-19" points="335.15 -72.76 335.15 -30.52 377.49 -30.52 377.49 11.49 335.15 11.49 335.15 53.72 293.03 53.72 293.03 11.49 250.68 11.49 250.68 -30.52 293.03 -30.52 293.03 -72.76 335.15 -72.76"/><polygon class="cls-20" points="524.01 316.31 524.01 328.89 536.62 328.89 536.62 341.4 524.01 341.4 524.01 353.99 511.46 353.99 511.46 341.4 498.84 341.4 498.84 328.89 511.46 328.89 511.46 316.31 524.01 316.31"/><polygon class="cls-21" points="99.65 233.33 99.65 291.04 157.51 291.04 157.51 348.44 99.65 348.44 99.65 406.15 42.09 406.15 42.09 348.44 -15.77 348.44 -15.77 291.04 42.09 291.04 42.09 233.33 99.65 233.33"/><polygon class="cls-22" points="147.23 343.67 147.23 425.88 229.65 425.88 229.65 507.66 147.23 507.66 147.23 589.87 65.23 589.87 65.23 507.66 -17.19 507.66 -17.19 425.88 65.23 425.88 65.23 343.67 147.23 343.67"/><polygon class="cls-23" points="593.68 58.61 593.68 117.85 653.08 117.85 653.08 176.78 593.68 176.78 593.68 236.03 534.6 236.03 534.6 176.78 475.2 176.78 475.2 117.85 534.6 117.85 534.6 58.61 593.68 58.61"/><polygon class="cls-24" points="199.91 -88.6 199.91 -57.8 230.78 -57.8 230.78 -27.16 199.91 -27.16 199.91 3.64 169.19 3.64 169.19 -27.16 138.31 -27.16 138.31 -57.8 169.19 -57.8 169.19 -88.6 199.91 -88.6"/><polygon class="cls-25" points="433.35 40.42 433.35 133.73 526.9 133.73 526.9 226.56 433.35 226.56 433.35 319.87 340.28 319.87 340.28 226.56 246.72 226.56 246.72 133.73 340.28 133.73 340.28 40.42 433.35 40.42"/></g></g></g></svg>