<svg xmlns="http://www.w3.org/2000/svg" viewBox="0 0 30.5 29.7"><defs><style>.cls-1{fill:#c8c8c8;}.cls-2{fill:#ededed;}.cls-3{fill:#fff;}.cls-4{fill:#dc4844;}.cls-5{fill:#bf3a37;}.cls-6{fill:#ebebeb;}.cls-7{fill:#bababa;}.cls-8{fill:#e7e6e6;}.cls-9{fill:#dba27d;}.cls-10{fill:#f8c09d;}.cls-11{fill:#3e7b7d;}.cls-12{fill:#005757;}.cls-13{fill:#e7b26a;}.cls-14{fill:#2e79bd;}.cls-15{fill:#252a26;}.cls-16{fill:#fbf8ec;}.cls-17{fill:#282928;}</style></defs><title>date</title><g id="Layer_1" data-name="Layer 1"><path class="cls-1" d="M28.28,21.07l-17.1,3.26a1.76,1.76,0,0,1-2-1.58S7.5,3.41,9,3.12c0,0,18-2,18.22-.29l2.45,16A1.94,1.94,0,0,1,28.28,21.07Z"/><path class="cls-2" d="M27.31,21.75,10,23.6a1.8,1.8,0,0,1-1.89-1.75S7.76,2.43,9.3,2.27c0,0,18-.51,18.19,1.21l1.38,16.16A1.89,1.89,0,0,1,27.31,21.75Z"/><path class="cls-2" d="M9.51,21.06,25.12,23.6A1.8,1.8,0,0,0,27,21.85s.4-19.42-1.15-19.58c0,0-15.44-.44-15.59,1.28L8.65,18.3C8.56,19.36,8.56,21,9.51,21.06Z"/><path class="cls-3" d="M18.12,1.29h0A10.41,10.41,0,0,1,28.53,11.69v4.16a6.42,6.42,0,0,1-6.42,6.42h-8a6.42,6.42,0,0,1-6.42-6.42V11.69A10.41,10.41,0,0,1,18.12,1.29Z"/><path class="cls-4" d="M13.17,1.29h9.91a5.45,5.45,0,0,1,5.45,5.45v0a0,0,0,0,1,0,0H7.71a0,0,0,0,1,0,0v0a5.45,5.45,0,0,1,5.45-5.45Z"/><path class="cls-5" d="M11.1,2.87h0a.45.45,0,0,1-.42-.47V1.29h.85V2.4A.46.46,0,0,1,11.1,2.87Z"/><path class="cls-5" d="M16.11,2.87h0a.45.45,0,0,1-.42-.47V1.29h.85V2.4A.45.45,0,0,1,16.11,2.87Z"/><path class="cls-5" d="M20.8,2.87h0a.45.45,0,0,1-.42-.47V1.29h.84V2.4A.45.45,0,0,1,20.8,2.87Z"/><path class="cls-5" d="M25.52,2.87h0a.46.46,0,0,1-.43-.47V1.29c0-.08.85,0,.85,0V2.4A.45.45,0,0,1,25.52,2.87Z"/><rect class="cls-6" x="15.52" y="0.55" width="0.85" height="2.17" rx="0.42" ry="0.42"/><rect class="cls-6" x="20.23" y="0.55" width="0.85" height="2.17" rx="0.42" ry="0.42"/><rect class="cls-6" x="24.94" y="0.55" width="0.85" height="2.17" rx="0.42" ry="0.42"/><path class="cls-7" d="M26.77,16.43l-4.92,5.78A11.54,11.54,0,0,0,22,20.56c0-.41-.08-.77-.1-1.35a2.16,2.16,0,0,1,1.18-2.3c.61-.37,1.62-.09,2.23-.14C25.6,16.75,26.58,16.71,26.77,16.43Z"/><path class="cls-8" d="M28.4,16.07l-6.55,6.14a13.07,13.07,0,0,0,.39-1.91c0-.48,0-.91,0-1.59a2.46,2.46,0,0,1,1.66-2.54c.78-.36,2,.09,2.73.12C27,16.3,28.14,16.37,28.4,16.07Z"/><rect class="cls-6" x="9.86" y="9.79" width="2.78" height="2.01"/><rect class="cls-6" x="9.86" y="13.37" width="2.78" height="2.01"/><rect class="cls-6" x="14.28" y="13.37" width="2.78" height="2.01"/><rect class="cls-6" x="18.7" y="13.37" width="2.78" height="2.01"/><rect class="cls-6" x="23.03" y="13.37" width="2.78" height="2.01"/><rect class="cls-6" x="9.86" y="16.95" width="2.78" height="2.01"/><rect class="cls-6" x="14.28" y="16.95" width="2.78" height="2.01"/><rect class="cls-6" x="18.7" y="16.95" width="2.78" height="2.01"/><rect class="cls-6" x="14.28" y="9.79" width="2.78" height="2.01"/><rect class="cls-6" x="18.7" y="9.79" width="2.78" height="2.01"/><rect class="cls-6" x="23.12" y="9.79" width="2.78" height="2.01"/><rect class="cls-6" x="10.51" y="0.55" width="0.85" height="2.17" rx="0.42" ry="0.42"/></g><g id="Layer_5" data-name="Layer 5"><path class="cls-4" d="M15.61,11.15s0,0,0,0l0-.06Z"/><path class="cls-4" d="M15.79,11.28l.05,0a.08.08,0,0,0,0-.08s0,0,0,0l0,.05a0,0,0,0,1,0,0h0s0,0,0,0a.09.09,0,0,0,.13,0S15.8,11.27,15.79,11.28Z"/><path class="cls-4" d="M17.94,12.84v0Z"/><path class="cls-4" d="M18.38,14.54s0,0,0,0Z"/><path class="cls-4" d="M18.32,14.84v0Z"/><path class="cls-4" d="M17.94,12.84v.05S18,12.86,17.94,12.84Z"/><path class="cls-4" d="M16.19,11.21h0Z"/><path class="cls-4" d="M17.45,12.27h0Z"/><path class="cls-4" d="M17,11.91s0,0,.05-.05a0,0,0,0,1,0,0Z"/><path class="cls-4" d="M16.26,11.44Z"/><path class="cls-4" d="M17.71,12.59h0Z"/><path class="cls-4" d="M15.33,11.5h0Z"/><path class="cls-4" d="M16,11.71h0v0Z"/><path class="cls-4" d="M18.19,15.37h0Z"/><path class="cls-4" d="M14.65,17.08s0,0,0,0,0,0,0,.06l0,0S14.68,17.1,14.65,17.08Z"/><path class="cls-4" d="M16.2,11.22h0Z"/><polygon class="cls-4" points="14.62 17.18 14.62 17.18 14.62 17.19 14.62 17.18"/><path class="cls-4" d="M17.75,16.49h0Z"/><path class="cls-4" d="M18.2,15.7v0A0,0,0,0,0,18.2,15.7Z"/><path class="cls-4" d="M17.51,16.88l0,0h0Z"/><polygon class="cls-4" points="17.13 17.15 17.14 17.15 17.16 17.14 17.13 17.15"/><path class="cls-4" d="M13.86,11.83l0,0S13.94,11.8,13.86,11.83Z"/><path class="cls-4" d="M16.18,11.23h0Z"/><path class="cls-4" d="M17.72,17.21l0,0,0,0h0Z"/><path class="cls-4" d="M12.12,15v0Z"/><path class="cls-4" d="M17.44,17.42h0Z"/><path class="cls-4" d="M13.89,11.87Z"/><path class="cls-4" d="M14.37,11.6c-.07,0,0,.07,0,.11s-.05,0-.09-.06h0v0l0,0s0,0-.06,0,0,0,0,0l0,0-.06,0h0l0,0a.1.1,0,0,0,0,.05h0l0,.08,0,0h0s0,0,0,0h0l0,0c0-.05,0,0,0-.08l-.05,0,0,.05,0,0,0,0s0,0,0-.06,0,0,0,0h.08c-.09-.06,0,0,0-.08a.19.19,0,0,0-.11.05.36.36,0,0,1-.11.06s0,0,0,.08-.05.05-.08.05h-.06s-.07,0-.1,0a.25.25,0,0,1,0,.08s0,.05-.06.05v-.07a.07.07,0,0,0,0,.08s0,0,0,0h0a.09.09,0,0,1,0,0h0s0,0,0,0,0,.05,0,.06l0,0-.06.07,0,0,0,0,0,0,0,0-.06.08s0-.05,0,0a1.63,1.63,0,0,1-.17.2l-.19.19V13h0s0,0,0,0,0,0,0,.06-.05,0-.05,0a1.12,1.12,0,0,1-.06.23.82.82,0,0,1-.1.21h0v0a.13.13,0,0,0,0,.06.43.43,0,0,0,0,.05v0a.06.06,0,0,1,0,.05v0s0,.1,0,.16a.78.78,0,0,0,0,.16V14a.22.22,0,0,1,0,.08v.06a.14.14,0,0,1,0,.07.05.05,0,0,1,0,0v.08c0,.05,0,.1,0,.1a.64.64,0,0,1,0,.07l0,0,0,.06v0a.13.13,0,0,0,0,.06.07.07,0,0,0,0,0s0,0,0,.06h0l0,0,0,0h0l0,0,0,0v0a.05.05,0,0,1,0,0v0a.06.06,0,0,0,0,0v.06a.22.22,0,0,1,0,.09v0l0,0,0,.06,0,0s0,0-.06,0l0,0h0v0s0,0,0,.05h0v0l0,.06a.14.14,0,0,0,0,.06l0,.06h0s0,0,0,0,0,0,0,.05l0,0,0,.05,0,.05,0,0a.36.36,0,0,1,.07.1c0-.06,0-.09.07,0l0,0s0-.06.06,0,0,.07-.06,0l.05.05h0s0,0,0,.07a.08.08,0,0,0,0,0,.05.05,0,0,0,0,0h0a.43.43,0,0,0,.12.14l.06.06h0l0,0,0,0s0,0,0,0a.06.06,0,0,0,.06,0l0,.07,0,.06v0h0l0,0,0,0,0,0c.07,0,0,0,.08,0s.07.11,0,.1l.12.08.07,0,0,0,.05,0s0-.05,0-.06,0,.06,0,.07h0l.06,0,0,0,0,0,.06.05.06.05c.07.08.15.14.23.12h.14s0,0,0,0,0,0,0,0h.11l.09,0,.08,0h.09s0,.06.08.08l.06,0h.2a.24.24,0,0,1,.11.06v0s0,0,.06,0,0,0,0,0a2.26,2.26,0,0,1,.44.08c.15,0,.3.07.45.09A.09.09,0,0,0,16,17.7a.07.07,0,0,1,.11,0l0,.06a.93.93,0,0,1,.33,0h.17l.08,0,.08,0s0,0,0,0h.11l0,0v0s0,0,0,0,0,0,0,0,0,0,0,0l0,0s0,0,.06,0,0,0,0,0l0,0,.05,0s0,0,0,0a.43.43,0,0,0,.12-.05l0,0h0l.05,0s0,0,0,0l0,0s.06,0,0-.07.06,0,.1,0l.05-.05a.09.09,0,0,0,0-.06s0,0,.06,0l.05-.07s0,0,0-.05l.05,0,0,0,0,0,0,0a.16.16,0,0,1,0-.07.08.08,0,0,1,.06,0,2,2,0,0,0,.12-.26c0-.09.07-.17.1-.25s0,.07,0,.11,0,.08,0,.1a1,1,0,0,0,.05-.22.54.54,0,0,1,0-.1l0-.1s0,0,0,.06,0,0,0-.06,0,0,0-.06,0-.07,0-.11a.49.49,0,0,0,0-.11.45.45,0,0,0,0-.11s0,0,0,0,0-.06,0-.07v0s0,0,0,0l0-.05a.3.3,0,0,0,0-.09s.06,0,.07,0,0-.06.09,0,0-.05,0-.05,0,0,.05,0a.17.17,0,0,0,0-.09.2.2,0,0,1,0-.08s0,0,0,0a.29.29,0,0,1,0-.09.1.1,0,0,1,0-.09s0,0,0,0a.17.17,0,0,0,0-.1v-.09s0,0,0-.05v0a.41.41,0,0,1,0-.11c.07.05,0,0,.09,0v-.08l0,0a.36.36,0,0,0,0-.1.27.27,0,0,1,0-.09l0,0v-.07h0l0,0h0s0,0,0,0v0s0-.06,0-.08h0l0,0a.06.06,0,0,1,0-.06s.06,0,.07,0a.05.05,0,0,1,0,0s0,0,0-.06a.08.08,0,0,0,0-.05s0,0,0,0h.05l0,0s0,0,0,0,0,0,0,0,0,0,0-.05l0,0a.42.42,0,0,0,0-.16s0-.1,0-.15,0,0,.05,0,0,0,0,0,0-.07,0-.11l-.06-.1a.54.54,0,0,1-.05-.11l0-.05s0,0,0,0h0v0s0,0,0-.06v-.06a.05.05,0,0,0,0-.05h0a.69.69,0,0,0-.2-.29h0s0,0,0-.05l0-.05,0,0s0,0,0-.05-.05,0-.06,0v-.08l0,0h0v0a.26.26,0,0,0-.09-.09l0,0s0,0-.05-.05l0,0,0,0a.14.14,0,0,1,0-.07s0,0,0,0h0l0,0h0l-.06-.05s0,0,0,.08a.1.1,0,0,1-.09,0c.06,0,0-.05,0-.09s0,0,0,0,0,0,0,0h0s0,0-.06,0v0h-.05l-.05,0c0-.05,0,0,.07,0l0,0H17.3s-.05,0-.06-.05.05,0,.08,0l0-.07,0,0h0l0,0,0,0h0a.11.11,0,0,1-.07,0l-.05,0a.09.09,0,0,0-.05,0h0v0a.08.08,0,0,1,0-.05s0-.06,0-.06a.07.07,0,0,1-.06,0s0,0-.07,0l0,0s0,0,0,0,0,0,0,.05-.09,0-.14-.07l0,0,0,0-.05,0h-.18l-.05,0h-.07a0,0,0,0,1,0-.05h0a.16.16,0,0,0-.14,0s0,0,0-.05,0,.05-.09,0,0,0,.06,0l-.16,0s0,0,.06-.06H16a.07.07,0,0,0-.07,0h0s0,0,0,0,.07,0,.07,0h0a.11.11,0,0,0,0,.05h.06a.26.26,0,0,1,.12,0l0,0,0,0,0,0h0s0,.07,0,.07l0,0s0,0,0,0h.05s0,.06,0,0l.06,0h.05s.05,0,.06,0h0c.06,0,.07,0,.07,0v0l.05,0a.24.24,0,0,1,0,.07.38.38,0,0,0,0,.08l0,0s0,0,0,0,0,0,0,0l0,0,.05,0s.06,0,0,.08,0-.06,0,0,0,0,0,0,.06,0,.07,0-.07,0,0,0h0s0,0,0,0a.13.13,0,0,0,.05.07s0,0,.07,0l0,0,.05,0,.05.07a.94.94,0,0,1,.09.12h0a.08.08,0,0,1,.08,0l.07.06s0,0-.07,0l0,0s0,0,.07,0l0,0,0,0,0,0a.21.21,0,0,1,.08.1.2.2,0,0,0,0-.08s0,0,.08,0,0,.05-.06,0,0,0,0,0h-.05c0,.05,0,0,.06,0s0,0,0,0,0,0,0,0a.14.14,0,0,1,0,.06.06.06,0,0,1,0,.06,0,0,0,0,1,.05,0s0,0,0,0,0,0,0,.05,0,.05.07,0,0,0,0,.05l0,0,0,0s0,0,.05,0h0l0,0a.05.05,0,0,1,0,0,.08.08,0,0,1,0,0s0,0,0,.05l0,.09,0,0v0h0l.06.1,0,.05,0,0s0,.07,0,.06l0,.06s0,0,0,0v0l0,0h0v0a.11.11,0,0,1,0,0v.07s0,0,0,0,0,0,0,0a.06.06,0,0,0,0,.06v-.06a.43.43,0,0,1,0,.11h-.05a.06.06,0,0,0,0,.06.09.09,0,0,0,0,.05s0,0,0,0a.05.05,0,0,1,0,0l0,0v.09s0,0,0,0v0s0,0,0,0,0-.05,0,0v.05s0,0,0,0,0,.06,0,.07,0,.07,0,.09l0,0v.06s.07,0,.09.05a.05.05,0,0,1,0,0l0,0a0,0,0,0,1-.05,0v0s0,0,0,0h0a.06.06,0,0,0,0,0v0s0,0,0,0,0,0,0,0a.41.41,0,0,0,0,.11.45.45,0,0,1,0,.11h0a.08.08,0,0,0,0,0v.05s0,0,0,.07-.06,0-.05.06-.05,0-.06,0v.06a.14.14,0,0,1,0,.06l0,0,0,0v0a.16.16,0,0,1,0,.07l0,0a0,0,0,0,0,0,0h0a0,0,0,0,0,0,0s0,0,0,0,0,0,0,.07,0,0,0,0,0-.05,0-.05h0s0,0,0,0a.14.14,0,0,1,0,.06h0c-.06.08,0,.06,0,.16s-.06,0-.05,0,.05,0,.06,0a.11.11,0,0,0,0,.07s0,0,0,0l0,0s0,.05,0,.1,0,0,0,0v0l0,0a.13.13,0,0,0-.05.09s-.05,0-.07,0A.09.09,0,0,1,18,16h0a.08.08,0,0,0,0,0c.05,0,0,0,.05.06h0v0l0-.05a.11.11,0,0,1,0-.05v.09s0,0,0-.06a.08.08,0,0,1,0-.05c0,.05,0,0,0,0l0,0s0,0,0,.05v0l0,0L18,16.13a.21.21,0,0,0,0,.06.17.17,0,0,0,0,.07.24.24,0,0,0,0,.08l-.05.07h0a0,0,0,0,1,0,.05s0,0,0,.06a.09.09,0,0,0-.07,0s0,0,0,.05,0,.05,0,.08h-.08l0,0v.06a.15.15,0,0,1,0,.11.11.11,0,0,0,0-.05.08.08,0,0,1,0,0s0,0,0,0v0l0,0s0,0,0,0,0,0,0,0,0,.06,0,.08a0,0,0,0,1,0,0s0,.05,0,.06h-.05l0,0-.08.05,0,0-.05,0h-.08l0,0,0,0h0l-.09.05s0,0,0,0h0a.06.06,0,0,0,0,0l0,0a0,0,0,0,1-.05,0c-.06,0,0,0,0-.05s0,0,0,0h0l-.05,0a.07.07,0,0,1-.06,0h0l0,0,0,0h0l-.06,0v0a.26.26,0,0,1-.11.07l-.13,0c0-.05,0,0,0-.07s0,.07-.06.09-.07-.05-.08-.1h.07s0,0-.06,0-.05,0-.07,0v0l-.06,0-.05,0a.11.11,0,0,1-.11,0v0c-.06.07,0,0-.11,0l0-.07-.09,0-.12,0a1,1,0,0,1,.18-.09h-.08a.1.1,0,0,0-.08,0s0,0,.06,0l-.09.05H15.4c0-.07,0-.08-.1-.1l-.09,0a.12.12,0,0,1-.06-.06H15l-.05,0-.11,0-.05,0h-.06a.13.13,0,0,1,0,0h0s0,0-.05.05-.05,0-.05,0l0-.05,0,0,0,0s0,0,.05,0,0-.05-.07-.1,0,0-.08,0l.05.07a.09.09,0,0,1-.1-.05.08.08,0,0,0-.09-.06l0,0-.13,0H14s0-.05,0,0l-.1,0-.06,0h-.05l-.1,0a.27.27,0,0,1-.08-.07h0s-.07,0-.08,0,0,0,0,0h-.05a.05.05,0,0,1-.05,0h0s0,0,0,0a.05.05,0,0,0,0,0l0,0h0a.43.43,0,0,1-.16-.05.11.11,0,0,0,0-.11s0,0,0-.05l0-.05h0s0,0,0,0l0,0h0l0,0,0,0h0L13,16l-.05,0,0,0v0s0,0,0-.05v-.06l0-.06a.86.86,0,0,1-.11-.24s0,0-.06,0l0-.05s0,0,0,0h0l0,0a.09.09,0,0,0,0,0s0,0,0,0l0,0-.08,0a.33.33,0,0,0,0-.14.19.19,0,0,0,0-.07v0l0,0a.14.14,0,0,0,0-.07s0,0,0-.06v-.05s0,0,0,0l0,0v0l0-.06h0v-.2a.25.25,0,0,0,0-.08l0,0s0,0,0,0v0l0,0-.05,0,0,0h.07a.43.43,0,0,0,0,0,.06.06,0,0,1,0,0V14h0v0a.06.06,0,0,0,0,0v0h0a.11.11,0,0,0,0-.05s0,0,0,0a.14.14,0,0,1,0-.06.14.14,0,0,0,0-.06.18.18,0,0,0,0-.06s0,0,0,0h0v-.18l0,0a.19.19,0,0,1,0-.09.28.28,0,0,1,0-.08s0,0,0,0a.07.07,0,0,0,0-.06s0,0,0-.06v0l0,0v0a.11.11,0,0,0,0-.05.15.15,0,0,1,0-.06.07.07,0,0,1,.07,0,.07.07,0,0,1,0-.05s0,0,0,0a0,0,0,0,1,0,0l0,0,0-.06,0-.05h0l0,0s0,0,0,0l-.08.07s0,0,0,0,0,0,.05,0,0,0,0,0a.43.43,0,0,0,0,0,.14.14,0,0,1,0-.07.14.14,0,0,1,0-.06l0,0h0l0,0,0,0s0,0,.05,0l.05,0s0-.06-.05-.07,0,0,0,0v0h0l-.06.06s0-.07.05-.08v-.09c.07,0,.16,0,.19,0l.12-.12a.18.18,0,0,0,.05-.07.11.11,0,0,0,0-.07s0,0,.06,0,0,0,0,0l0,0a.1.1,0,0,1,.05,0s0-.05,0-.08,0,0,0,0,0,0,0,0v0h.07l.06,0a.1.1,0,0,0,0,0l.05,0,0-.05,0,0h0a.19.19,0,0,1,.15,0l0,0h.1l.09,0h0l0,0h.1l.09,0,.09,0H15c.07,0,.07,0,.11-.07l0,.06.07-.08c.05,0,.1,0,.15,0a.14.14,0,0,0,.16,0l0,0s.15,0,.15,0,0,0,0,0v0l.12-.06c.09,0,0,.11.12.11s.14-.09.12-.11-.05,0-.05,0l0,0c0-.08,0-.17-.08-.22l-.07,0,0,0h.07s-.06,0-.09,0l0,0-.08.08s0-.06,0-.08,0,.07,0,.1,0-.07-.07,0a0,0,0,0,1,0-.05s-.1,0-.12.07-.13,0-.13-.06-.07.07-.1.07,0,0-.05,0-.09,0-.08,0-.07.06-.11.07l-.08,0a.11.11,0,0,0-.07,0l0,0s-.06,0-.1,0-.07.1-.1.15a0,0,0,0,1,0-.07s0,0,0-.07,0,0,0,.06,0,0,0,.05,0,0-.08-.06,0,0-.07.08,0,0,0,0h0l0,0s0,0,0,0v0Zm-1.54,1h0l0,0Zm-.11.11,0,0s0,0,0,0h-.06Zm.43,0s0,0,0,0,0,0,0,0h0S13.15,12.73,13.15,12.74Z"/><path class="cls-4" d="M13.15,12.66h0v0Z"/><polygon class="cls-4" points="17.94 12.81 17.94 12.82 17.94 12.81 17.94 12.81"/><polygon class="cls-4" points="12.06 14.86 12.07 14.86 12.06 14.85 12.06 14.86"/><path class="cls-4" d="M17.53,12a0,0,0,0,0,0,0Z"/><path class="cls-4" d="M17.26,11.79l0,0Z"/><path class="cls-4" d="M17.05,11.61h0Z"/><path class="cls-4" d="M18.49,15.79v0Z"/><path class="cls-4" d="M18.55,14.36s0,0,0,.05S18.57,14.36,18.55,14.36Z"/><polygon class="cls-4" points="17.73 17.2 17.73 17.2 17.72 17.21 17.73 17.2"/><path class="cls-4" d="M18.58,14.47a.13.13,0,0,0,0-.06A.13.13,0,0,0,18.58,14.47Z"/><polygon class="cls-4" points="15.95 11.15 15.94 11.15 15.93 11.15 15.95 11.15"/><path class="cls-4" d="M15.93,11.15h0Z"/><path class="cls-4" d="M15.88,11.17h0S15.89,11.15,15.88,11.17Z"/><path class="cls-4" d="M16.3,11.26v0Z"/><path class="cls-4" d="M16.4,11.29s0-.06-.09-.06h0s0,0,.05,0S16.39,11.3,16.4,11.29Z"/><path class="cls-4" d="M16.74,11.68l0,0,0,0h0s0,.06,0,.05l0,0h0S16.69,11.65,16.74,11.68Z"/><path class="cls-4" d="M17,11.84s0,0,0,0S17,11.88,17,11.84Z"/><path class="cls-4" d="M18.18,13.42h0S18.16,13.43,18.18,13.42Z"/><polygon class="cls-4" points="18.5 13.75 18.52 13.7 18.48 13.69 18.5 13.75"/><polygon class="cls-4" points="18.26 14.06 18.25 14.04 18.28 14.1 18.26 14.06"/><path class="cls-4" d="M17.18,17.07l0,0s0,0,0,0h0Z"/><path class="cls-4" d="M15.87,17.34s-.06-.05-.08,0S15.85,17.35,15.87,17.34Z"/><polygon class="cls-4" points="12.55 15.15 12.58 15.17 12.55 15.12 12.55 15.15"/></g><g id="Layer_4" data-name="Layer 4"><path class="cls-9" d="M10.26,16A18.6,18.6,0,0,1,2.7,19.78L6,13.42Z"/><path class="cls-10" d="M2.32,16l2.35-2.94a3.08,3.08,0,0,1,.46-.4,1.28,1.28,0,0,1,1-.21l4.37.79-2,1.57-2.16-.5s-.29-.07-.58.58l-.86,1.66a1.69,1.69,0,0,0,.15,1.82.92.92,0,0,0,.25.23L2.51,20,2,17.84A2.31,2.31,0,0,1,2.32,16Z"/><polygon class="cls-11" points="5.4 27.17 3.73 30.55 -0.28 30.55 -0.28 25.98 0.59 24.21 2.83 25.58 5.39 27.16 5.4 27.17"/><polygon class="cls-12" points="5.39 27.16 3.72 30.55 0.37 30.55 2.83 25.58 5.39 27.16"/><path class="cls-13" d="M10.69,13.09a14.45,14.45,0,0,1,1.89-.16,17.67,17.67,0,0,1-1.3,1.7L10.84,14Z"/><path class="cls-14" d="M10.7,13.09,2.66,17l.58,1.5,8-3.84s.08-.25-.12-.29A.2.2,0,0,0,11,14a.25.25,0,0,0-.12-.35.19.19,0,0,0-.09-.28S10.92,13.26,10.7,13.09Z"/><path class="cls-10" d="M6.86,18.08a5.61,5.61,0,0,0,1.22-1.69l.76-1.66a1,1,0,0,1,.86-.51h.08a1.27,1.27,0,0,1,.83.82.74.74,0,0,1,0,.21,3.4,3.4,0,0,1-.34,1l-2,4.55a9.54,9.54,0,0,1-1.15,1.76l0,0a7.66,7.66,0,0,1-.81.92.76.76,0,0,0-.11.14l-.33.68h0l-3.21-2,.2-.39a.48.48,0,0,0,0-.31L2.5,20l2.6-1.33.2-.1S5.62,19.19,6.86,18.08Z"/><path class="cls-15" d="M1.78,17.39l1.13-.54.57,1.5-1.13.54a.74.74,0,0,1-1-.4h0A.89.89,0,0,1,1.78,17.39Z"/><path class="cls-16" d="M.52,24.48l4.71,2.9a.6.6,0,0,0,.86-.27l.82-1.65a.77.77,0,0,0-.25-1L2,21.6a.6.6,0,0,0-.86.27L.27,23.52A.77.77,0,0,0,.52,24.48Z"/><path class="cls-17" d="M11.86,13a3.4,3.4,0,0,1,.72-.05,4.65,4.65,0,0,1-.45.63Z"/></g></svg>