<svg xmlns="http://www.w3.org/2000/svg" xmlns:xlink="http://www.w3.org/1999/xlink" viewBox="0 0 177 44"><defs><style>.cls-1{isolation:isolate;}.cls-2{font-size:13.31px;fill:#009cde;font-family:Montserrat-ExtraBold, Montserrat;letter-spacing:-0.01em;}.cls-3,.cls-4{font-weight:700;}.cls-4{letter-spacing:-0.02em;}.cls-5,.cls-6,.cls-7{fill:#46b063;}.cls-5,.cls-6,.cls-7,.cls-8{font-family:Montserrat-Regular, Montserrat;}.cls-6{letter-spacing:-0.02em;}.cls-7{letter-spacing:-0.01em;}.cls-8{font-size:5.9px;fill:#919191;letter-spacing:0.2em;}.cls-9{letter-spacing:0.18em;}.cls-10{letter-spacing:0.2em;}.cls-11{letter-spacing:0.16em;}.cls-12{fill:url(#radial-gradient);}.cls-13{fill:url(#linear-gradient);}.cls-14{fill:url(#linear-gradient-2);}.cls-15{opacity:0.31;mix-blend-mode:screen;fill:url(#linear-gradient-3);}.cls-16{fill:#fff;}</style><radialGradient id="radial-gradient" cx="23.77" cy="42.11" r="22.13" gradientTransform="translate(0 38.6) scale(1 0.08)" gradientUnits="userSpaceOnUse"><stop offset="0" stop-color="#cecece"/><stop offset="1" stop-color="#fff" stop-opacity="0"/></radialGradient><linearGradient id="linear-gradient" x1="5.99" y1="31.07" x2="39.54" y2="-2.49" gradientUnits="userSpaceOnUse"><stop offset="0" stop-color="#0077c5"/><stop offset="0.07" stop-color="#0083ca"/><stop offset="0.28" stop-color="#009fd5"/><stop offset="0.45" stop-color="#00b0dd"/><stop offset="0.59" stop-color="#00b6df"/></linearGradient><linearGradient id="linear-gradient-2" x1="3.2" y1="33.75" x2="39.64" y2="-2.69" gradientUnits="userSpaceOnUse"><stop offset="0" stop-color="#00a681"/><stop offset="1" stop-color="#00de7e"/></linearGradient><linearGradient id="linear-gradient-3" x1="33.89" y1="10.7" x2="40.86" y2="4.24" xlink:href="#linear-gradient-2"/></defs><title>logo</title><g class="cls-1"><g id="Layer_1" data-name="Layer 1"><text class="cls-2" transform="translate(49.83 23.56) scale(0.98 1)"><tspan class="cls-3">SA</tspan><tspan class="cls-4" x="18.7" y="0">L</tspan><tspan class="cls-3" x="26.54" y="0">UD</tspan><tspan class="cls-5" x="47.63" y="0">ES</tspan><tspan class="cls-6" x="64.35" y="0">P</tspan><tspan class="cls-7" x="73.59" y="0">ERANZA</tspan></text><text class="cls-8" transform="translate(72.59 31.98) scale(1.15 1)">CLINI<tspan class="cls-9" x="21.98" y="0">C</tspan><tspan class="cls-10" x="27.29" y="0">A HIS</tspan><tspan class="cls-11" x="49.17" y="0">P</tspan><tspan class="cls-10" x="54.32" y="0">ANA</tspan></text><ellipse class="cls-12" cx="23.77" cy="42.11" rx="22.68" ry="2.05"/><path class="cls-13" d="M22.69,8.91C31,5.62,38.86,9.39,43,13.37A21.62,21.62,0,0,1,45.27,16a16.86,16.86,0,0,0,0-6.05C44,2.74,37.23-1.33,31.15.77a16,16,0,0,0-8.41,6.17A16.08,16.08,0,0,0,14.32.77C8.24-1.33,1.46,2.74.16,9.93-.8,15.24,1,21,4.87,26.15a13.78,13.78,0,0,0,2.57.6c5.4.71,5.33-.34,7.61-1.3,1.52-.65,2.66.08,2.6.59-.08.79-3.07,2.15-2.43,2.43a7.48,7.48,0,0,0,8-.87c2.92-2.49,4-.79,4-.79a11.06,11.06,0,0,1-5.81,5.53c-3.64,1.53-5.44,1.51-8.93,1.11a39.38,39.38,0,0,0,10.26,5.18C33.6,35,41.62,27.21,44.45,19.07a12.48,12.48,0,0,0-7.07-3.49c-5.38-.81-7.35.59-9.65,1.52-1.53.61-2.66-.14-2.59-.65.1-.79,2-2.83,1.37-3.12-2.51-1.18-4.51-.5-6.9,1.45-3,2.44-3.74-1.25-3.74-1.25A18.65,18.65,0,0,1,22.69,8.91ZM21.54,24.69V22.6"/><path class="cls-14" d="M19.48,20.15,24,22.6a53.5,53.5,0,0,0,15.56,4.91,26.81,26.81,0,0,0,4.94-8.44C42.54,17.18,40.79,15,38,14.58c-5.38-.81-7.35.59-9.65,1.51-1.53.62-2.66-.14-2.59-.65.1-.79,3.11-2.08,2.48-2.38a7.48,7.48,0,0,0-8,.72c-3,2.43-4,.71-4,.71a11.07,11.07,0,0,1,5.9-5.18A20.35,20.35,0,0,1,43,13.37,21.62,21.62,0,0,1,45.27,16a16.86,16.86,0,0,0,0-6.05C44,2.74,37.23-1.33,31.15.77a16,16,0,0,0-8.41,6.17A16.08,16.08,0,0,0,14.32.77,10.37,10.37,0,0,0,4.37,2.64,12.74,12.74,0,0,0,2.43,4.5c-.51.6-1.23,1.86-1,2.2s1-1,1.4-.2C3,6.77,5.77,5.84,6,6.3s1.08,1.82,1.21,2c.63.94.85-2.26,1.2-1.81s-.11.81.8,2.21a1.64,1.64,0,0,1,.36.9c0,.35-.13.48-.18,1,0,0,.18-.3.22.12C9.72,11.36,13.56,15.61,19.48,20.15Z"/><path class="cls-15" d="M38.48,3.36C32.76.48,26.86,5,25,7.31A21.75,21.75,0,0,1,34.62,7c5.29,1.11,7.26,3,9.63,5.84A11.87,11.87,0,0,0,38.48,3.36Z"/><path class="cls-16" d="M21.09,28.57A10,10,0,0,1,22,23.94a4.37,4.37,0,0,0,4.3-2c1.54-2.48,1.81-1.81,1.81-1.81s-.18-.94-1.5-.9a3.42,3.42,0,0,0-1.29.74,8.3,8.3,0,0,0-2.08-2s-4-3.34-3.73-3.42a2.2,2.2,0,0,0,.9,2.16l-1.14-.63s.36,1.73,1.3,2.24l-1.1-.23s.71,1.84,1.38,2l-.87-.28A10.46,10.46,0,0,0,21.34,22,4.85,4.85,0,0,1,20,23.25a3,3,0,0,0-.75,2.28l.36-.39s-.12,1.65.47,2.2l.31-1S20.44,28.32,21.09,28.57Z"/><path class="cls-16" d="M23.27,13.83a2.54,2.54,0,0,1,.2,1.73,9.55,9.55,0,0,0-.2,2.19,14.42,14.42,0,0,1,2,1.89,5.23,5.23,0,0,0,.32-3.54l-.32.48A3.89,3.89,0,0,0,23.27,13.83Z"/><path class="cls-16" d="M9.66,11.49a.3.3,0,0,0,.3-.28L10.7,4l.48,3.47a.29.29,0,0,0,.11.2.26.26,0,0,0,.19.07h0a.28.28,0,0,0,.22-.09l.77-.79h1.37a.31.31,0,0,0,.29-.2l.55-1.42.57,1.45,0,.06a.32.32,0,0,0,.25.14h7.06a.31.31,0,0,0,0-.61H15.74L15,4.3a.28.28,0,0,0-.15-.17.31.31,0,0,0-.25,0,.29.29,0,0,0-.17.17l-.76,2H12.34a.31.31,0,0,0-.22.09l-.42.44L11,1.41v0a.32.32,0,0,0-.3-.25h-.06a.31.31,0,0,0-.24.27l-.8,7.82-.88-4.1A.3.3,0,0,0,8.53,5a.27.27,0,0,0-.23,0,.3.3,0,0,0-.23.24L7.41,8.07,6.27,6.25h0A.3.3,0,0,0,6,6.11H1.06a.3.3,0,1,0,0,.6H5.84L7.28,9a.32.32,0,0,0,.13.13l.07,0a.31.31,0,0,0,.36-.23l.52-2.31,1,4.64h0a.32.32,0,0,0,.3.23Z"/></g></g></svg>